<svg xmlns="http://www.w3.org/2000/svg" xmlns:xlink="http://www.w3.org/1999/xlink" width="13.976" height="15.862" viewBox="0 0 13.976 15.862"><defs><style>.a{clip-path:url(#a);}.b{fill:#fff;}.c{clip-path:url(#b);}</style><clipPath id="a"><path d="M12.9,15.8a.53.53,0,0,1-.383-.247l-3.74-4.615A5.436,5.436,0,0,1,2.2,10.671,6.149,6.149,0,0,1,.307,4.027,5.693,5.693,0,0,1,5.672,0,5.683,5.683,0,0,1,10.9,3.686,6.2,6.2,0,0,1,9.683,10.18l3.7,4.65a.671.671,0,0,1-.052.818.521.521,0,0,1-.367.153A.5.5,0,0,1,12.9,15.8Z" transform="translate(0)"/></clipPath><clipPath id="b"><path d="M13.361,15.858a.551.551,0,0,1-.4-.248L9.092,10.977a5.769,5.769,0,0,1-6.819-.265A6.055,6.055,0,0,1,.317,4.042,5.875,5.875,0,0,1,5.873,0a5.878,5.878,0,0,1,5.409,3.7,6.086,6.086,0,0,1-1.256,6.519l3.832,4.668a.657.657,0,0,1-.054.821.548.548,0,0,1-.38.154A.539.539,0,0,1,13.361,15.858Z"/></clipPath></defs><g class="a" transform="translate(0)"><g transform="translate(0 0)"><g transform="translate(0 0)"><path class="b" d="M14.369,14.83l-3.7-4.65a6.2,6.2,0,0,0,1.213-6.494A5.683,5.683,0,0,0,6.658,0,5.692,5.692,0,0,0,1.292,4.026a6.149,6.149,0,0,0,1.889,6.645,5.436,5.436,0,0,0,6.585.264l3.74,4.615a.53.53,0,0,0,.384.246.517.517,0,0,0,.426-.149A.67.67,0,0,0,14.369,14.83ZM2.148,5.96A4.633,4.633,0,0,1,6.658,1.213,4.633,4.633,0,0,1,11.169,5.96a4.633,4.633,0,0,1-4.511,4.747A4.633,4.633,0,0,1,2.148,5.96Z" transform="translate(-0.986 0)"/></g></g></g><g class="c"><g transform="translate(0 0.158)"><path class="b" d="M14.53,14.591,10.7,10.016a5.957,5.957,0,1,0-.934.743L13.636,15.3a.552.552,0,0,0,.839.1A.634.634,0,0,0,14.53,14.591ZM1.875,5.864a4.67,4.67,0,1,1,4.67,4.67,4.67,4.67,0,0,1-4.67-4.67Z" transform="translate(-0.672 0)"/></g></g></svg>